<svg width="145" height="30" viewBox="0 0 145 30" fill="none" xmlns="http://www.w3.org/2000/svg">
<path d="M20.6476 20.5776H26.0527C25.2599 23.6101 23.7465 25.9206 21.5124 27.509C19.2783 29.1697 16.4676 30 13.0804 30C8.9725 30 5.76546 28.6643 3.45928 25.9928C1.15309 23.3935 0 19.6751 0 14.8375C0 10.2166 1.11706 6.6065 3.35118 4.00722C5.65736 1.33574 8.8644 0 12.9723 0C17.2964 0 20.6476 1.29964 23.0258 3.89892C25.332 6.5704 26.4851 10.2888 26.4851 15.0542C26.4851 15.343 26.4851 15.5957 26.4851 15.8123C26.4851 16.0289 26.4851 16.1733 26.4851 16.2455C26.4851 16.6065 26.4491 16.8592 26.377 17.0036H7.67527C7.74734 19.2419 8.28786 20.9025 9.29681 21.9856C10.2337 23.1408 11.639 23.7184 13.5128 23.7184C14.738 23.7184 15.783 23.4657 16.6478 22.9603C16.864 22.8881 17.0442 22.7798 17.1883 22.6354C17.4045 22.4188 17.6207 22.2022 17.8369 21.9856C17.909 21.769 18.1612 21.4801 18.5936 21.1191C19.0981 20.7581 19.7828 20.5776 20.6476 20.5776ZM7.67527 12.13H18.7017C18.5576 10.1805 18.0531 8.73646 17.1883 7.79783C16.2514 6.787 14.9181 6.28159 13.1885 6.28159C11.603 6.28159 10.3058 6.787 9.29681 7.79783C8.28786 8.80866 7.74734 10.2527 7.67527 12.13Z" fill="#3D9090"/>
<path d="M57.8824 14.9458C56.8734 15.4513 55.4681 15.9206 53.6664 16.3538C52.0088 16.7148 51.18 16.8953 51.18 16.8953C49.8828 17.2563 48.9459 17.7256 48.3694 18.3032C47.8649 19.0975 47.6126 19.8917 47.6126 20.6859C47.6126 21.769 47.937 22.6354 48.5856 23.2852C49.2342 23.8628 50.1711 24.1516 51.3962 24.1516C53.4141 24.1516 54.9997 23.574 56.1527 22.4188C57.3058 21.2635 57.8824 19.6751 57.8824 17.6534V14.9458ZM59.612 28.2671C58.0986 29.0614 56.4771 29.5307 54.7474 29.6751C53.0898 29.8917 51.6124 30 50.3152 30C47.7208 30 45.4506 29.3141 43.5048 27.9422C41.5589 26.4982 40.586 24.1516 40.586 20.9025C40.586 17.87 41.4508 15.704 43.1804 14.4043C44.9822 13.1047 47.2523 12.2383 49.9909 11.8051C50.3512 11.8051 50.7837 11.769 51.2881 11.6968C51.7926 11.5523 52.3692 11.444 53.0178 11.3718C56.1888 10.9386 57.7743 10 57.7743 8.55596C57.7743 7.47292 57.1977 6.787 56.0446 6.49819C54.9636 6.13718 53.9547 5.95668 53.0178 5.95668C52.0088 5.95668 51.108 6.10108 50.3152 6.38989C49.5225 6.6787 48.9459 7.22022 48.5856 8.01444H41.3427C41.631 5.77617 42.6399 3.93502 44.3696 2.49097C46.3154 0.830325 49.09 0 52.6935 0C56.7293 0 59.7562 0.685921 61.7741 2.05776C63.8641 3.50181 64.909 5.52347 64.909 8.12274V17.9783C64.909 20.8664 64.3685 23.1408 63.2875 24.8014C62.2786 26.3899 61.0534 27.5451 59.612 28.2671Z" fill="#3D9090"/>
<path d="M78.9018 19.9278H86.2528C86.3249 21.3718 86.8654 22.4549 87.8743 23.1769C88.9554 23.8989 90.3967 24.2599 92.1984 24.2599C93.4957 24.2599 94.6127 24.0072 95.5496 23.5018C96.4144 22.9964 96.8468 22.3105 96.8468 21.444C96.8468 20.1444 95.3334 19.1697 92.3065 18.5199C91.0093 18.3032 90.0364 18.0866 89.3878 17.87C85.5681 16.9314 83.0097 15.8123 81.7125 14.5126C80.2711 13.213 79.5504 11.4801 79.5504 9.31408C79.5504 6.5704 80.5954 4.29603 82.6854 2.49097C84.8475 0.830325 87.6581 0 91.1174 0C94.865 0 97.8558 0.830325 100.09 2.49097C102.18 4.29603 103.297 6.6426 103.441 9.53069H98.7927C97.4234 9.53069 96.3784 8.91697 95.6577 7.68953C95.3694 7.40072 95.0812 7.11191 94.7929 6.8231C93.9281 6.17329 92.7389 5.84838 91.2255 5.84838C89.7841 5.84838 88.7031 6.06498 87.9824 6.49819C87.3338 6.93141 87.0095 7.58123 87.0095 8.44765C87.0095 9.60289 88.8833 10.5776 92.6308 11.3718C93.0632 11.5162 93.4236 11.6245 93.7119 11.6968C94.0722 11.769 94.3965 11.8051 94.6848 11.8051C98.3603 12.7437 100.919 13.8267 102.36 15.0542C103.729 16.3538 104.414 18.0866 104.414 20.2527C104.414 23.4296 103.261 25.8845 100.955 27.6173C98.7927 29.2058 95.5496 30 91.2255 30C87.1176 30 84.0547 29.1697 82.0368 27.509C79.9468 25.8484 78.9018 23.4296 78.9018 20.2527V19.9278Z" fill="#3D9090"/>
<path d="M139.162 20.5776H144.568C143.775 23.6101 142.261 25.9206 140.027 27.509C137.793 29.1697 134.983 30 131.595 30C127.487 30 124.28 28.6643 121.974 25.9928C119.668 23.3935 118.515 19.6751 118.515 14.8375C118.515 10.2166 119.632 6.6065 121.866 4.00722C124.172 1.33574 127.379 0 131.487 0C135.811 0 139.162 1.29964 141.541 3.89892C143.847 6.5704 145 10.2888 145 15.0542C145 15.343 145 15.5957 145 15.8123C145 16.0289 145 16.1733 145 16.2455C145 16.6065 144.964 16.8592 144.892 17.0036H126.19C126.262 19.2419 126.803 20.9025 127.812 21.9856C128.749 23.1408 130.154 23.7184 132.028 23.7184C133.253 23.7184 134.298 23.4657 135.163 22.9603C135.379 22.8881 135.559 22.7798 135.703 22.6354C135.919 22.4188 136.136 22.2022 136.352 21.9856C136.424 21.769 136.676 21.4801 137.109 21.1191C137.613 20.7581 138.298 20.5776 139.162 20.5776ZM126.19 12.13H137.217C137.072 10.1805 136.568 8.73646 135.703 7.79783C134.766 6.787 133.433 6.28159 131.703 6.28159C130.118 6.28159 128.821 6.787 127.812 7.79783C126.803 8.80866 126.262 10.2527 126.19 12.13Z" fill="#3D9090"/>
</svg>
