<svg width="28" height="29" viewBox="0 0 28 29" fill="none" xmlns="http://www.w3.org/2000/svg">
<path d="M0 16.8547C0 11.6496 2.94735 7.18806 7.1228 5.45302C7.85964 5.20515 8.35088 5.20517 8.5965 5.70089C8.84211 5.94876 8.84211 6.44442 8.5965 7.18801C8.10527 8.17946 7.85968 9.66667 7.85968 11.4017C7.85968 17.3504 11.7895 21.3162 17.9299 21.3162C19.4036 21.3162 20.6316 21.0684 21.8596 20.5727C22.3509 20.3248 22.8421 20.3248 23.0877 20.5727C23.3333 20.8205 23.5789 21.3162 23.0877 22.0598C21.1228 26.5213 17.193 29 12.0351 29C5.15788 28.7521 0 23.547 0 16.8547ZM20.1404 22.8034C19.6492 23.0513 18.4211 23.0513 17.4386 23.0513C10.5614 23.0513 5.89473 18.5898 5.89473 11.6496C5.89473 10.4103 6.14037 9.17098 6.38598 8.17952C3.92984 10.1624 2.45614 13.1368 2.45614 16.6069C2.45614 22.3077 6.38597 26.5214 12.2807 26.5214C15.4737 26.5214 18.4211 25.2821 20.1404 22.8034ZM15.7193 6.19657C15.2281 3.96581 15.2281 3.96579 13.0176 3.47007C12.772 3.47007 12.772 3.47013 12.772 3.22226C12.772 2.9744 12.772 2.97439 13.0176 2.97439C15.4737 2.47866 15.2281 2.47864 15.7193 0.247878C15.7193 1.51247e-05 15.9649 0 15.9649 0C16.2105 0 16.2106 1.51247e-05 16.2106 0.247878C16.7018 2.47864 16.7018 2.47866 18.9123 2.97439C19.1579 2.97439 19.158 3.22226 19.158 3.22226C19.158 3.22226 19.1579 3.47007 18.9123 3.47007C16.4562 3.96579 16.4562 3.96581 16.2106 6.19657C16.2106 6.44444 15.9649 6.44445 15.9649 6.44445C15.7193 6.44445 15.7193 6.44444 15.7193 6.19657ZM22.1053 15.3675C21.614 11.6496 21.6141 11.6495 17.6843 10.906C17.4386 10.906 17.193 10.6581 17.193 10.4103C17.193 10.1624 17.4386 9.91452 17.6843 9.91452C21.3685 9.17093 21.614 9.17096 22.1053 5.45302C22.1053 5.20515 22.3509 4.95726 22.5965 4.95726C22.8421 4.95726 23.0877 5.20515 23.0877 5.45302C23.5789 9.17096 23.579 9.17093 27.5088 9.91452C27.7544 9.91452 28 10.1624 28 10.4103C28 10.6581 27.7544 10.906 27.5088 10.906C23.8246 11.6495 23.5789 11.6496 23.0877 15.3675C23.0877 15.6154 22.8421 15.8632 22.5965 15.8632C22.3509 15.8632 22.1053 15.6154 22.1053 15.3675Z" fill="white"/>
</svg>
